<svg viewBox="0 0 100 74" fill="none" xmlns="http://www.w3.org/2000/svg"><path d="M1.431 63.473c7.226 3.064 32.688 8.954 36.714 9.878 1.11.255 2.283.507 3.366.162 1.248-.397 1.82-1.541 1.982-3.276 0 0 1.806-.03 2.378-.15 1.353-.283 1.76-1.284 1.76-1.284 5.66-.102 4.746-4.248 4.715-7.612-.074-7.89-.62-49.836-.884-57.062C51.007.322 46.242.3 43.91.323 19.06.58-.697-.14 1.274 5.057l.157 58.416z" fill="#fff"/><path d="M1.431 63.473c.03-8.768.106-51.19-.157-58.416.217.575.745.988 1.318 1.212 8.514 3.34 18.163 4.207 27.22 4.886 1.985.148 12.267.159 12.785 2.443.321 8.816.453 17.643.613 26.463.104 5.788.196 11.576.251 17.364.04 4.304.568 9.02-.03 13.294-.168 1.196-.671 2.396-1.919 2.794-1.084.345-2.257.092-3.366-.162-4.026-.925-29.488-6.815-36.714-9.879z" fill="#CAE5FF"/><path d="M1.43 63.792a.319.319 0 01-.318-.32c.026-7.677.11-51.06-.157-58.403a.32.32 0 01.637-.024c.268 7.353.185 50.75.158 58.429a.319.319 0 01-.32.317z" fill="#1A1E22"/><path d="M40.345 74c-.8 0-1.59-.181-2.27-.338-4.893-1.123-29.658-6.88-36.768-9.895a.32.32 0 01.25-.588c7.06 2.995 31.777 8.74 36.66 9.862 1.016.232 2.166.497 3.198.169.934-.298 1.506-1.15 1.7-2.535.417-2.973.281-6.193.15-9.307-.054-1.304-.111-2.654-.123-3.939a1976.15 1976.15 0 00-.252-17.362l-.06-3.434c-.134-7.538-.273-15.331-.55-22.99-.113-.396-.835-1.105-4.297-1.595-2.347-.332-5.026-.438-6.798-.51-.612-.024-1.095-.043-1.398-.066-9.644-.722-18.99-1.641-27.311-4.906-.725-.284-1.271-.793-1.5-1.396-.257-.677-.199-1.293.172-1.834 1.01-1.471 4.346-2.329 10.816-2.78 5.749-.4 13.331-.439 22.11-.484 3.17-.017 6.447-.033 9.833-.068 1.025-.011 2.933-.03 4.577.48 1.973.614 3.082 1.828 3.295 3.608a.177.177 0 01.002.026c.255 7.02.86 48.9.884 57.072.001.484.013.95.023 1.4.043 1.77.08 3.3-.546 4.442-.685 1.25-2.111 1.914-4.488 2.089a.319.319 0 11-.047-.636c2.171-.16 3.397-.703 3.976-1.76.544-.993.509-2.442.468-4.12-.01-.454-.022-.923-.023-1.414-.024-8.165-.628-49.983-.883-57.038-.187-1.521-1.12-2.522-2.85-3.06-1.548-.481-3.39-.462-4.38-.452-3.388.035-6.666.052-9.836.069-8.769.045-16.341.085-22.07.483C5.92 1.617 2.54 2.436 1.674 3.698c-.25.363-.283.77-.102 1.246.165.436.579.81 1.136 1.029 8.239 3.232 17.533 4.145 27.127 4.864.291.022.77.04 1.375.065 1.785.07 4.483.178 6.862.515 3.071.434 4.607 1.106 4.836 2.11.004.02.007.04.007.06.28 7.675.418 15.483.552 23.034l.06 3.434c.124 6.8.204 12.317.252 17.367.012 1.276.068 2.62.123 3.919.132 3.142.269 6.391-.156 9.422-.228 1.624-.967 2.68-2.138 3.054a4.14 4.14 0 01-1.264.183h.001z" fill="#1A1E22"/><path d="M40.982 8.602c-.01 0-.022 0-.033-.002-5.13-.531-11.272-1.09-17.212-1.63-5.941-.54-12.085-1.099-17.219-1.63a.319.319 0 11.066-.635c5.13.53 11.272 1.09 17.211 1.63 5.942.54 12.086 1.099 17.22 1.63a.319.319 0 01-.033.637z" fill="#1A1E22"/><path d="M44.372 70.556c-.181 0-.368-.005-.56-.015a.318.318 0 11.033-.637c.907.047 3.066.026 3.483-1.204.577-1.7.457-5.234.416-6.396-.196-5.751-.265-11.599-.331-17.253-.053-4.448-.107-9.047-.222-13.57-.187-7.302-.384-14.488-.601-21.973-.006-.206-.01-.416-.014-.625-.018-1.035-.037-2.106-.351-2.94-.338-.897-.98-1.42-2.022-1.643-1.274-.273-2.611-.23-3.905-.187-.49.016-.996.033-1.495.032-3.473-.005-7-.02-10.295-.035l-4.938-.023c-4.85-.025-9.867-.05-14.8-.05a.32.32 0 010-.638c4.934 0 9.952.025 14.803.05l4.937.023c3.294.015 6.821.029 10.293.035.488.002.989-.016 1.474-.032 1.332-.043 2.709-.088 4.06.201 2.794.6 2.838 3.041 2.877 5.196.004.206.008.413.014.617.217 7.485.414 14.673.6 21.974.117 4.528.17 9.13.223 13.58.067 5.65.136 11.494.331 17.239.071 2.066.101 5-.45 6.623-.364 1.073-1.62 1.65-3.561 1.65z" fill="#1A1E22"/><path d="M21.575 32.6c-.138 0-.276-.006-.412-.018-1.766-.162-3.484-1.242-4.711-2.962a.319.319 0 11.52-.37c1.119 1.569 2.668 2.553 4.248 2.697 1.771.162 3.52-.894 3.98-2.403a.319.319 0 11.61.187c-.274.898-.92 1.683-1.818 2.21-.736.431-1.581.66-2.418.66zM12.775 23.229c-.072 0-.144-.003-.217-.01-.877-.08-1.726-.611-2.33-1.458a.319.319 0 11.52-.37c.495.695 1.177 1.13 1.868 1.194.752.069 1.494-.374 1.687-1.007a.319.319 0 01.61.186c-.263.863-1.16 1.466-2.139 1.466v-.001zM30.392 25.27c-.072 0-.144-.004-.216-.01-.877-.08-1.727-.612-2.33-1.458a.319.319 0 11.52-.37c.495.695 1.176 1.13 1.868 1.193.752.07 1.494-.373 1.687-1.006a.319.319 0 11.61.186c-.264.863-1.16 1.465-2.14 1.465z" fill="#1A1E22"/><path d="M1.447 30.97C.35 35.21-.687 41.43 2.144 45.605c5.922 8.737 21.894 9.663 31.549 7.378 4.405-1.042 9.417-3.446 11.766-7.484.181-.312.355-.647.357-1.008.002-.36-.225-.747-.583-.808-.328-.056-.634.164-.893.373-1.199.96-2.407 1.803-3.607 2.764a14.276 14.276 0 005.607-6.484c.238-.553.388-1.31-.105-1.66-.259-.185-.62-.173-.914-.05-.294.122-.537.338-.773.55-1.37 1.232-2.657 2.393-4.026 3.625a18 18 0 004.076-5.95c.238-.566.387-1.345-.127-1.683-.273-.18-.647-.144-.939.008-.29.15-.517.398-.736.641-1.265 1.41-2.494 2.856-3.888 4.14-3.481 3.207-8.276 4.43-12.919 4.546-4.975.125-10.283-.652-14.856-2.64-3.298-1.435-6.505-3.634-8.282-6.813-.505-.903-1.683-3.01-1.406-4.08h.002z" fill="#fff"/><path d="M23.962 54.364c-8.487 0-17.808-2.274-22.082-8.58-1.295-1.91-1.927-4.426-1.877-7.478.035-2.177.407-4.603 1.135-7.414v-.002a.32.32 0 01.618.16c-.245.946.932 3.052 1.375 3.844 1.058 1.892 3.327 4.586 8.13 6.675 4.182 1.82 9.41 2.748 14.722 2.615 3.69-.093 8.89-.942 12.71-4.461 1.126-1.038 2.166-2.208 3.172-3.339l.695-.78c.213-.236.477-.53.827-.712.43-.222.913-.22 1.26.01.549.36.641 1.135.246 2.072-.405.965-.9 1.9-1.47 2.787l.912-.821c.242-.218.516-.464.864-.609.429-.178.897-.146 1.221.084.531.378.61 1.124.213 2.046a14.39 14.39 0 01-1.68 2.91.959.959 0 01.334-.002c.554.095.85.65.847 1.125-.002.444-.208.835-.4 1.166-1.117 1.919-2.875 3.594-5.226 4.98-1.965 1.158-4.296 2.076-6.743 2.655-2.832.67-6.245 1.07-9.803 1.07zM1.364 32.683C.906 34.765.668 36.62.641 38.317c-.048 2.917.546 5.31 1.767 7.11 3.312 4.885 9.532 6.876 14.166 7.687 5.47.956 11.842.791 17.045-.44 2.385-.565 4.656-1.458 6.566-2.584 2.256-1.33 3.938-2.928 4.998-4.75.158-.272.313-.562.314-.85.001-.21-.126-.46-.317-.492-.195-.033-.433.141-.64.307-.452.362-.91.71-1.361 1.05-.7.652-1.464 1.236-2.278 1.736a.32.32 0 01-.367-.52 68.944 68.944 0 011.81-1.388c.141-.105.283-.211.425-.319a13.928 13.928 0 003.277-4.653c.203-.474.31-1.057.003-1.275-.144-.103-.382-.108-.606-.015-.248.102-.469.301-.682.493l-2.026 1.824-2 1.8a.319.319 0 01-.435-.467 17.754 17.754 0 004.004-5.845c.07-.168.403-1.022-.008-1.292-.174-.114-.435-.07-.617.024-.247.128-.459.364-.646.572-.232.258-.462.518-.693.777-1.016 1.143-2.067 2.325-3.216 3.384-3.967 3.653-9.328 4.534-13.127 4.63-3.822.096-9.525-.29-14.991-2.667-4.967-2.16-7.328-4.972-8.433-6.949-.466-.834-.928-1.72-1.21-2.524h.001z" fill="#1A1E22"/><path d="M92.346 21.965c2.423-.106 4.828 1.1 5.321 4.214.366 2.308-1.408 4.613-3.642 5.31-2.15.671-4.715-.033-6.063-1.834-3.16-4.224.636-7.526 4.385-7.69z" fill="#CAE5FF"/><path d="M91.157 27.588c-.314-.419-.384-.871-.198-1.274.22-.478.786-.828 1.408-.868.779-.051 1.345.392 1.447 1.131.084.613-.363 1.263-1.02 1.478a1.577 1.577 0 01-.49.079c-.453 0-.886-.197-1.147-.546z" fill="#1A1E22"/><path d="M68.022 5.81c2.02 1.343 3.252 3.733 1.815 6.54-1.065 2.08-3.856 2.896-6.072 2.144-2.134-.724-3.79-2.805-3.817-5.053-.063-5.275 4.949-5.707 8.074-3.63z" fill="#CAE5FF"/><path d="M63.746 9.653c-.006-.523.203-.93.59-1.146.46-.257 1.124-.205 1.65.128.66.418.856 1.11.503 1.767-.293.545-1.038.806-1.695.594a1.572 1.572 0 01-.443-.226c-.366-.266-.6-.68-.606-1.116h.001zM69.276 33.767c-.313-.419-.383-.87-.198-1.274.22-.478.787-.828 1.408-.868.78-.051 1.346.392 1.448 1.131.084.613-.364 1.263-1.02 1.478a1.577 1.577 0 01-.49.079c-.454 0-.887-.197-1.148-.546zM87.085 3.391c-.313-.419-.384-.871-.198-1.274.22-.478.787-.828 1.408-.869.779-.05 1.345.393 1.447 1.132.084.613-.363 1.262-1.02 1.478a1.578 1.578 0 01-.49.079c-.453 0-.886-.197-1.147-.546z" fill="#1A1E22"/><path d="M84.473 59.496c-2.414-.24-4.622-1.774-4.668-4.927-.034-2.337 2.05-4.366 4.36-4.738 2.225-.36 4.662.703 5.74 2.677 2.527 4.63-1.698 7.36-5.433 6.989l.001-.001z" fill="#CAE5FF"/><path d="M86.45 54.099c.25.459.257.916.015 1.289-.286.443-.896.707-1.517.66-.778-.06-1.276-.58-1.272-1.326.004-.618.54-1.198 1.22-1.318.166-.03.335-.032.497-.009.448.065.85.32 1.058.703zM77.363 23.512a.319.319 0 01-.207-.562 147.839 147.839 0 017.892-6.276.319.319 0 01.38.512 147.144 147.144 0 00-7.86 6.25.317.317 0 01-.206.076h.001zM58.427 51.89c.163 0 .33.026.49.079.657.215 1.105.865 1.02 1.478-.102.739-.668 1.182-1.447 1.132-.622-.041-1.188-.39-1.408-.87-.186-.402-.115-.854.198-1.273.261-.35.694-.546 1.147-.546zM96.531 43.3c-.313-.419-.383-.871-.197-1.274.22-.478.786-.828 1.407-.869.78-.05 1.346.393 1.448 1.132.084.613-.364 1.262-1.02 1.478a1.58 1.58 0 01-.49.079c-.454 0-.887-.197-1.148-.546zM76.575 66.412a.322.322 0 01-.13-.027c-.067-.03-6.876-3.062-9.252-4.017a.319.319 0 11.238-.591c2.387.96 9.206 3.995 9.274 4.026a.318.318 0 01-.13.61zM73.015 43.26a.332.332 0 01-.05-.003c-.073-.012-7.441-1.152-9.985-1.452a.32.32 0 01.074-.634c2.556.301 9.935 1.444 10.01 1.456a.32.32 0 01-.05.634zM56.666 25.355a.32.32 0 01-.124-.613c2.368-1.003 9.344-3.662 9.414-3.689a.318.318 0 11.227.596c-.07.027-7.035 2.682-9.392 3.68a.32.32 0 01-.125.026z" fill="#1A1E22"/></svg>